version = 1
nColumns = 19
nRows = 12
inDegrees = yes
endheader 
time	r_ground_force_vx	r_ground_force_vy	r_ground_force_vz	r_ground_force_px	r_ground_force_py	r_ground_force_pz	l_ground_force_vx	l_ground_force_vy	l_ground_force_vz	l_ground_force_px	l_ground_force_py	l_ground_force_pz	r_ground_torque_x	r_ground_torque_y	r_ground_torque_z	l_ground_torque_x	l_ground_torque_y	l_ground_torque_z	
          0.14182479	         96.43603064	        650.59766306	        -34.91331165	          0.27120006	          0.00000000	          0.07381439	          0.00000000	          0.00000000	          0.00000000	          0.00000000	          0.00000000	          0.00000000	          0.00000000	          0.77689019	          0.00000000	          0.00000000	          0.00000000	          0.00000000	
          0.14270440	         97.49683022	        638.67398258	        -34.16722105	          0.27246792	          0.00000000	          0.07431929	          0.00000000	          0.00000000	          0.00000000	          0.00000000	          0.00000000	          0.00000000	          0.00000000	          0.82455429	          0.00000000	          0.00000000	          0.00000000	          0.00000000	
          0.14548358	        102.35790708	        605.56364393	        -27.22430768	          0.27519814	          0.00000000	          0.07468061	          0.00000000	          0.00000000	          0.00000000	          0.00000000	          0.00000000	          0.00000000	          0.00000000	          0.75185499	          0.00000000	          0.00000000	          0.00000000	          0.00000000	
          0.14749778	        106.89861582	        578.97881169	        -21.71142552	          0.27749420	          0.00000000	          0.07503004	          0.00000000	          0.00000000	          0.00000000	          0.00000000	          0.00000000	          0.00000000	          0.00000000	          0.72569195	          0.00000000	          0.00000000	          0.00000000	          0.00000000	
          0.14837739	        109.33134235	        567.87894148	        -19.65941602	          0.27854009	          0.00000000	          0.07521477	          0.00000000	          0.00000000	          0.00000000	          0.00000000	          0.00000000	          0.00000000	          0.00000000	          0.71972420	          0.00000000	          0.00000000	          0.00000000	          0.00000000	
          0.15115657	        116.38703937	        540.60055349	        -16.56265320	          0.28033754	          0.00000000	          0.07609421	          0.00000000	          0.00000000	          0.00000000	          0.00000000	          0.00000000	          0.00000000	          0.00000000	          0.75508377	          0.00000000	          0.00000000	          0.00000000	          0.00000000	
          0.15317078	        122.08151057	        526.23400082	        -16.76706332	          0.28032895	          0.00000000	          0.07692917	          0.00000000	          0.00000000	          0.00000000	          0.00000000	          0.00000000	          0.00000000	          0.00000000	          0.78989376	          0.00000000	          0.00000000	          0.00000000	          0.00000000	
          0.15405038	        124.67873392	        519.22703285	        -16.66052233	          0.28039376	          0.00000000	          0.07727420	          0.00000000	          0.00000000	          0.00000000	          0.00000000	          0.00000000	          0.00000000	          0.00000000	          0.79942336	          0.00000000	          0.00000000	          0.00000000	          0.00000000	
          0.15682957	        132.56093295	        497.62904951	        -16.02626490	          0.28067490	          0.00000000	          0.07831049	          0.00000000	          0.00000000	          0.00000000	          0.00000000	          0.00000000	          0.00000000	          0.00000000	          0.81027653	          0.00000000	          0.00000000	          0.00000000	          0.00000000	
          0.15884377	        137.54557973	        482.68957130	        -15.53562819	          0.28089347	          0.00000000	          0.07901238	          0.00000000	          0.00000000	          0.00000000	          0.00000000	          0.00000000	          0.00000000	          0.00000000	          0.80681486	          0.00000000	          0.00000000	          0.00000000	          0.00000000	
          0.15972337	        139.45902410	        476.34508801	        -15.33047715	          0.28098899	          0.00000000	          0.07930608	          0.00000000	          0.00000000	          0.00000000	          0.00000000	          0.00000000	          0.00000000	          0.00000000	          0.80362435	          0.00000000	          0.00000000	          0.00000000	          0.00000000	
          0.16250256	        144.45619218	        456.98947729	        -14.66838773	          0.28128859	          0.00000000	          0.08018837	          0.00000000	          0.00000000	          0.00000000	          0.00000000	          0.00000000	          0.00000000	          0.00000000	          0.79160563	          0.00000000	          0.00000000	          0.00000000	          0.00000000	
